<?xml version="1.0" standalone="no"?>
<!DOCTYPE svg PUBLIC "-//W3C//DTD SVG 20010904//EN"
 "http://www.w3.org/TR/2001/REC-SVG-20010904/DTD/svg10.dtd">
<svg version="1.0" xmlns="http://www.w3.org/2000/svg"
 width="280.000000pt" height="280.000000pt" viewBox="0 0 280.000000 280.000000"
 preserveAspectRatio="xMidYMid meet">
<metadata>
Created by potrace 1.11, written by Peter Selinger 2001-2013
</metadata>
<g transform="translate(0.000000,280.000000) scale(0.100000,-0.100000)"
fill="#000000" stroke="none">
<path d="M235 2790 c-3 -5 -1 -11 5 -15 6 -4 8 -11 5 -16 -13 -20 -14 -50 -2
-42 9 5 9 4 0 -8 -7 -8 -14 -62 -17 -124 -3 -61 -8 -153 -11 -205 -8 -148 -15
-275 -20 -395 -9 -192 -13 -267 -20 -395 -7 -142 -13 -268 -20 -420 -2 -58 -6
-143 -9 -190 -9 -163 -17 -326 -21 -405 -2 -44 -7 -132 -11 -195 -8 -127 -8
-269 -1 -276 9 -9 47 -13 42 -4 -3 4 -2 10 2 13 5 2 2 2 -4 1 -7 -2 -13 1 -13
6 0 6 6 10 14 10 8 0 17 6 20 13 3 6 3 -3 0 -20 -2 -18 0 -33 4 -33 5 0 9 6
10 13 0 6 3 39 6 72 4 47 14 233 18 355 1 8 6 18 12 23 8 5 6 10 -4 17 -12 7
-12 10 -1 10 7 0 11 6 8 13 -3 9 5 13 24 12 16 0 29 -1 29 -2 0 -1 -12 -9 -27
-17 -19 -10 -22 -15 -11 -16 9 0 18 -3 21 -7 2 -5 2 -2 0 5 -2 9 3 11 17 7 12
-4 20 -2 20 5 0 6 -5 8 -12 4 -7 -4 -8 -3 -4 5 6 8 12 9 20 2 7 -6 17 -7 22
-3 5 4 0 -4 -11 -18 -11 -14 -13 -19 -5 -13 22 20 25 16 27 -45 1 -31 4 -118
8 -192 4 -74 7 -142 7 -150 1 -8 5 -21 11 -27 6 -9 6 -13 -1 -13 -6 0 1 -13
16 -28 29 -30 44 -34 21 -6 -13 16 -12 17 9 12 44 -12 45 9 16 477 -6 95 -12
237 -19 395 -2 52 -6 133 -9 180 -3 47 -8 146 -11 220 -4 74 -8 173 -11 220
-5 101 -10 197 -19 380 -4 74 -8 164 -10 200 -2 36 -6 121 -9 190 -3 69 -9
163 -12 210 -3 47 -7 114 -8 150 l-1 64 -37 2 c-21 1 -40 -1 -43 -6z m58 -20
c15 22 16 22 14 2 0 -11 -5 -18 -9 -16 -4 3 -8 0 -8 -6 0 -7 -7 -10 -15 -6 -8
3 -15 1 -15 -4 0 -6 -5 -10 -11 -10 -8 0 -8 4 0 14 6 7 9 22 5 32 -3 12 0 10
9 -5 l14 -24 16 23z m-3 10 c0 -5 -4 -10 -10 -10 -5 0 -10 5 -10 10 0 6 5 10
10 10 6 0 10 -4 10 -10z m17 -53 c0 -7 -9 -14 -19 -14 -10 -1 -18 3 -18 8 0 6
4 8 9 4 5 -3 12 -1 16 5 8 13 12 13 12 -3z m-29 -932 c-3 -3 -9 2 -12 12 -6
14 -5 15 5 6 7 -7 10 -15 7 -18z m3 -62 c0 -10 2 -56 5 -103 2 -47 6 -131 8
-186 2 -56 5 -105 7 -110 4 -8 4 -57 0 -156 -1 -32 -17 -36 -38 -10 -13 15
-13 15 -4 -5 13 -26 14 -33 3 -33 -5 0 -9 6 -10 13 -6 34 -4 197 3 317 4 74 8
170 8 212 1 43 5 78 10 78 4 0 7 -8 8 -17z m109 -1613 c0 -5 -2 -10 -4 -10 -3
0 -8 5 -11 10 -3 6 -1 10 4 10 6 0 11 -4 11 -10z"/>
<path d="M565 2779 c5 -13 2 -25 -6 -31 -11 -8 -10 -9 3 -4 15 4 15 1 -3 -35
-12 -21 -18 -46 -15 -55 3 -8 2 -13 -3 -10 -4 3 -9 -7 -9 -22 -2 -35 -9 -69
-18 -84 -5 -7 -3 -8 6 -3 10 6 11 4 4 -6 -10 -16 -14 -33 -16 -71 0 -16 -4
-28 -7 -28 -4 0 -8 -24 -10 -52 -5 -79 -9 -133 -11 -133 0 0 -3 -36 -5 -80 -3
-44 -7 -100 -9 -125 -23 -229 -24 -985 -1 -1235 6 -74 16 -192 20 -260 4 -58
7 -76 20 -160 4 -22 8 -49 9 -60 1 -11 4 -24 7 -30 4 -5 7 -25 7 -44 0 -19 6
-37 13 -41 8 -6 8 -9 -2 -13 -9 -4 -10 -6 -2 -6 7 -1 10 -8 6 -18 -4 -11 -3
-14 5 -9 7 4 12 3 12 -3 0 -5 -5 -11 -11 -13 -6 -2 -2 -13 9 -26 10 -12 21
-21 23 -19 2 1 1 -2 -3 -7 -11 -14 -10 -26 3 -26 5 0 7 5 3 12 -4 7 -3 8 5 4
9 -6 9 -11 -1 -24 -11 -13 -11 -14 1 -7 11 6 13 4 8 -7 -3 -9 0 -21 6 -27 12
-12 -3 -16 -19 -3 -5 4 -4 1 2 -7 8 -9 17 -10 29 -4 16 9 16 10 0 17 -16 6
-16 8 0 32 9 15 13 24 7 20 -5 -3 -12 0 -15 7 -4 10 2 13 20 9 18 -3 24 -1 19
7 -4 6 -2 11 5 11 8 0 8 4 -1 15 -7 8 -17 12 -23 8 -6 -4 -7 -1 -2 6 5 9 10
10 18 2 6 -6 14 -11 18 -11 7 0 9 8 10 58 0 12 4 22 9 22 5 0 9 8 9 18 2 51 6
72 12 72 4 0 6 11 3 25 -2 14 -1 25 4 25 4 0 7 15 7 32 -1 18 0 37 3 42 17 31
19 371 2 371 -3 0 -9 41 -12 78 -1 20 -4 37 -7 37 -4 0 -7 12 -7 27 -3 56 -9
95 -15 99 -4 2 -5 -10 -4 -26 1 -17 -2 -30 -7 -30 -5 0 -4 -10 3 -21 9 -17 8
-20 -1 -14 -10 6 -12 1 -8 -19 3 -14 2 -26 -1 -26 -3 0 -7 -19 -8 -42 -2 -25
-9 -46 -18 -51 -11 -6 -12 -13 -6 -26 6 -10 6 -23 1 -31 -5 -8 -6 -19 -3 -25
4 -5 3 -7 -2 -3 -4 4 -15 2 -24 -4 -9 -7 -13 -8 -9 -4 4 5 3 15 -3 23 -9 10
-8 13 5 13 11 0 14 -5 10 -12 -5 -7 -3 -8 6 -3 10 6 6 13 -14 28 -21 15 -24
22 -14 28 10 7 10 11 1 17 -14 9 -22 70 -38 292 -13 179 -7 640 10 785 2 17 6
57 10 89 3 33 10 67 14 75 5 9 6 22 3 30 -3 8 0 11 7 7 7 -5 9 -1 5 8 -4 10
-1 16 9 16 8 0 17 3 20 8 2 4 2 2 1 -5 -2 -7 1 -15 6 -18 6 -4 6 -14 -1 -27
-7 -13 -7 -18 -1 -14 6 3 13 2 17 -4 3 -5 1 -10 -6 -10 -7 0 -4 -7 7 -15 12
-9 14 -14 6 -15 -8 0 -10 -5 -5 -12 4 -7 9 -24 10 -38 1 -14 4 -41 7 -60 2
-19 4 -42 5 -50 1 -13 2 -13 11 0 6 9 5 17 -3 22 -9 6 -8 8 2 8 7 0 11 6 7 15
-3 8 -2 15 2 15 5 0 8 10 9 23 0 12 4 47 9 77 4 30 8 63 8 73 0 9 3 17 7 17 3
0 5 14 4 30 -1 17 1 33 4 35 15 8 0 254 -18 313 -6 21 -6 32 0 32 6 0 7 6 2
13 -4 6 -8 17 -9 22 -1 6 -6 19 -10 29 -6 15 -4 17 7 11 11 -7 11 -5 -1 9 -8
11 -13 29 -12 41 2 13 -2 26 -9 31 -8 5 -9 3 -4 -6 5 -9 4 -11 -4 -6 -9 6 -9
11 0 22 9 11 8 15 -5 20 -9 3 -13 10 -10 15 3 5 10 6 16 3 7 -5 8 -2 4 5 -5 7
-10 10 -14 7 -5 -6 -31 24 -32 37 0 4 5 7 11 7 5 0 8 -4 4 -9 -3 -5 0 -13 6
-17 7 -4 9 -3 5 4 -3 6 -2 13 4 17 16 10 12 22 -10 28 -13 3 -18 1 -13 -6 4
-7 -1 -6 -11 2 -14 12 -21 13 -38 2 -11 -7 -17 -8 -13 -2 3 6 1 11 -5 11 -7 0
-9 -8 -5 -21z m40 -27 c-3 -3 -11 0 -18 7 -9 10 -8 11 6 5 10 -3 15 -9 12 -12z
m25 -2046 c0 -3 -4 -8 -10 -11 -5 -3 -10 -1 -10 4 0 6 5 11 10 11 6 0 10 -2
10 -4z"/>
<path d="M770 2786 c7 -7 13 -7 20 0 6 6 3 10 -10 10 -13 0 -16 -4 -10 -10z"/>
<path d="M815 2789 c4 -10 0 -16 -10 -17 -48 -6 -42 37 -47 -374 -2 -217 0
-269 10 -273 8 -3 18 -3 22 0 14 9 23 -16 11 -28 -9 -9 -11 -8 -6 3 4 11 0 16
-13 16 -12 0 -18 -8 -18 -23 0 -13 4 -19 10 -15 18 13 69 15 62 3 -4 -6 -3
-11 2 -11 6 0 9 -374 8 -950 0 -523 3 -950 7 -950 5 0 5 -4 2 -10 -3 -5 -1
-10 6 -10 7 0 4 -7 -7 -16 -10 -8 -13 -12 -5 -8 7 3 16 2 20 -4 7 -12 56 -23
65 -15 3 3 1 14 -5 24 -5 11 -6 19 -2 19 5 0 9 424 10 942 2 966 3 1034 13
1019 3 -4 20 -7 38 -5 17 1 32 -1 32 -6 0 -4 -13 -6 -28 -5 -18 1 -29 -3 -29
-10 0 -7 9 -12 19 -10 10 2 18 -1 18 -8 0 -6 7 -1 16 11 12 18 13 26 4 37 -7
8 -8 15 -3 15 7 0 10 103 10 280 0 171 -4 280 -10 280 -5 0 -4 7 3 15 10 12 9
16 -3 21 -9 3 -13 12 -10 20 3 8 10 11 17 7 6 -4 5 1 -2 10 -8 9 -11 20 -9 24
3 5 -8 9 -25 10 -20 0 -26 -2 -17 -7 7 -5 17 -6 22 -3 5 3 7 0 5 -8 -3 -8 -12
-12 -19 -10 -8 2 -20 4 -27 4 -7 0 -11 6 -8 12 2 6 -2 12 -10 12 -7 0 -11 -4
-8 -9 3 -4 1 -8 -5 -8 -5 0 -13 5 -17 11 -4 8 -9 7 -15 -2 -6 -9 -12 -10 -16
-4 -11 13 -36 18 -28 5 9 -14 -8 -13 -24 3 -10 10 -11 9 -6 -4z m125 -22 c8
-1 21 -6 28 -11 7 -4 20 -2 29 6 15 12 15 11 5 -8 -6 -12 -8 -25 -4 -29 4 -5
1 -5 -5 -1 -7 4 -13 2 -13 -3 0 -6 6 -11 13 -12 9 0 9 -2 -1 -6 -6 -2 -10 -9
-7 -13 3 -5 1 -11 -4 -14 -4 -3 -8 2 -8 12 0 33 -3 42 -14 42 -5 0 -7 -4 -4
-10 10 -17 -7 -11 -22 8 -14 16 -14 16 -9 0 3 -10 0 -18 -5 -18 -7 0 -9 11 -7
24 4 18 1 23 -10 18 -9 -3 -13 -1 -9 5 4 6 -4 9 -19 7 -27 -3 -47 -14 -25 -14
7 0 9 -5 5 -12 -5 -7 -3 -8 6 -3 9 5 11 4 6 -4 -4 -6 -2 -19 5 -27 10 -12 9
-13 -5 -8 -9 3 -16 12 -16 19 0 8 -5 17 -12 21 -7 5 -8 3 -3 -6 5 -8 4 -11 -3
-6 -6 3 -13 -3 -17 -14 -5 -16 -10 -18 -25 -10 -37 20 -18 57 34 67 11 2 22 5
24 7 4 4 59 0 92 -7z m-40 -43 c0 -9 -6 -14 -12 -11 -7 2 -13 8 -13 13 0 5 -4
15 -9 22 -7 11 -4 12 13 3 11 -7 21 -19 21 -27z m60 -39 c0 -2 -6 -5 -13 -8
-8 -3 -14 1 -14 8 0 7 6 11 14 8 7 -3 13 -6 13 -8z m-50 -2567 c0 -6 -6 -5
-15 2 -8 7 -15 14 -15 16 0 2 7 1 15 -2 8 -4 15 -11 15 -16z"/>
<path d="M802 2744 c-25 -17 -29 -34 -9 -34 8 0 19 11 25 25 14 29 13 30 -16
9z"/>
<path d="M936 2746 c2 -6 13 -12 24 -12 23 0 17 12 -9 19 -12 3 -18 0 -15 -7z"/>
<path d="M1080 2795 c0 -8 29 -12 39 -5 9 5 4 8 -13 8 -14 0 -26 -2 -26 -3z"/>
<path d="M1200 2790 c-9 -6 -10 -10 -3 -10 6 0 15 5 18 10 8 12 4 12 -15 0z"/>
<path d="M1240 2786 c15 -15 12 -30 -3 -18 -7 6 -18 7 -26 2 -11 -6 -6 -12 16
-24 17 -8 34 -12 38 -8 5 4 5 1 1 -6 -4 -7 -12 -10 -17 -7 -5 4 -9 2 -9 -4 0
-5 6 -12 13 -14 9 -4 9 -6 -1 -6 -7 -1 -11 -5 -7 -10 3 -5 1 -12 -4 -15 -4 -3
-8 2 -8 12 0 48 -3 57 -13 42 -6 -10 -10 -11 -10 -2 0 6 -4 12 -8 12 -16 0 -9
-30 7 -30 15 -1 15 -1 0 -10 -17 -10 -18 -46 -4 -305 4 -71 8 -170 10 -220 2
-49 6 -135 9 -190 3 -55 8 -154 11 -220 3 -66 8 -165 11 -220 2 -55 7 -147 9
-205 2 -58 7 -150 9 -205 10 -185 17 -339 22 -450 7 -175 12 -271 20 -415 4
-74 7 -145 7 -156 1 -17 6 -21 25 -19 54 6 58 22 66 224 5 123 13 283 22 426
3 50 7 137 9 195 8 189 14 344 19 430 7 112 17 333 21 440 2 47 6 132 9 190 5
102 11 212 22 450 10 200 10 234 2 257 -4 13 -3 25 3 28 5 4 6 12 2 18 -4 7
-8 18 -8 26 0 9 -13 15 -35 17 -23 2 -29 0 -20 -6 8 -5 18 -6 22 -4 10 6 11
-10 1 -19 -3 -4 -12 -2 -19 4 -8 7 -14 6 -20 -2 -4 -8 -3 -9 4 -5 19 11 14 -5
-5 -20 -17 -13 -17 -14 2 -7 18 6 19 5 5 -12 -8 -10 -16 -30 -16 -44 -5 -81
-16 -322 -20 -421 -4 -127 -10 -278 -18 -445 -14 -288 -19 -417 -20 -497 0
-49 -4 -88 -8 -88 -5 0 -8 15 -9 33 0 17 -2 57 -4 87 -5 85 -16 311 -20 455
-3 72 -7 171 -9 220 -4 84 -7 144 -22 505 -3 77 -10 137 -16 141 -7 4 -5 8 3
12 12 5 12 6 0 6 -11 1 -11 4 0 18 11 13 11 15 1 9 -9 -6 -12 -3 -10 10 2 12
-2 18 -10 16 -8 -1 -12 3 -10 10 3 7 10 13 16 13 7 0 11 5 10 10 -1 6 -9 9
-16 7 -8 -2 -12 1 -8 6 3 5 -2 9 -10 9 -10 0 -11 -4 -4 -11z m257 -10 c-3 -7
-1 -18 5 -24 8 -8 1 -17 -23 -31 -31 -19 -70 -31 -42 -13 6 4 13 13 15 21 3
12 38 57 47 60 2 1 1 -5 -2 -13z m-4 -72 c-7 -3 -9 -13 -6 -22 4 -14 3 -14 -5
-2 -12 16 -7 30 11 29 9 0 9 -2 0 -5z m-126 -2589 c4 -4 3 -5 -4 -1 -6 3 -14
2 -18 -4 -4 -6 -11 -8 -16 -4 -5 3 -7 9 -4 14 6 10 31 7 42 -5z"/>
<path d="M1483 2753 c4 -3 -1 -12 -11 -20 -15 -13 -15 -13 6 -3 19 9 23 30 5
30 -4 0 -3 -3 0 -7z"/>
<path d="M1559 2796 c0 -1 -2 -11 -5 -23 -2 -14 1 -23 9 -23 19 0 36 -20 30
-36 -8 -21 -22 -17 -18 4 2 10 -2 19 -9 19 -15 0 -17 -27 -3 -45 7 -9 6 -11
-4 -7 -13 5 -14 -174 -14 -1275 0 -1095 2 -1280 14 -1275 11 5 12 3 1 -10 -15
-19 -11 -24 23 -31 25 -4 67 26 67 48 0 5 5 6 11 3 6 -5 4 -12 -8 -21 -17 -13
-16 -14 8 -9 17 4 30 1 38 -9 8 -9 19 -16 25 -16 6 0 4 5 -4 11 -12 9 -11 10
8 6 21 -5 29 7 22 38 -1 5 2 6 7 2 4 -5 8 -14 8 -20 0 -7 5 -12 10 -12 6 0 9
3 7 7 -1 5 3 8 9 8 8 0 9 4 0 13 -6 8 -8 17 -4 21 12 12 10 489 -1 505 -8 11
-8 13 1 7 10 -5 11 -1 3 18 -5 14 -6 26 -3 26 4 0 -1 6 -12 14 -11 7 -33 13
-50 11 -23 -1 -29 -6 -27 -21 2 -16 1 -17 -8 -4 -9 13 -14 11 -32 -10 -13 -15
-19 -18 -15 -8 3 10 2 20 -3 23 -12 7 -11 423 1 431 5 3 6 11 2 17 -4 7 0 6
10 -2 18 -14 13 -36 -5 -25 -6 4 -8 2 -5 -4 6 -8 20 -9 45 -3 1 1 -2 9 -7 19
-7 14 -6 19 4 19 7 0 11 -6 8 -12 -2 -7 6 -15 18 -18 16 -4 23 0 27 15 5 19 6
18 17 -8 16 -37 16 -49 19 284 2 258 2 272 -16 272 -20 0 -24 15 -6 26 7 4 8
3 4 -4 -4 -7 -2 -12 4 -12 7 0 10 6 8 13 -7 19 -48 16 -59 -4 -5 -11 -17 -19
-27 -18 -10 0 -12 3 -4 6 20 8 34 41 20 49 -7 4 -8 3 -4 -4 4 -7 2 -12 -4 -12
-6 0 -8 -4 -5 -10 3 -5 0 -10 -9 -10 -8 0 -23 -3 -33 -6 -10 -3 -8 1 7 11 25
16 25 16 2 9 -22 -5 -23 -4 -12 16 9 16 9 20 1 15 -14 -8 -14 317 -1 350 l9
20 0 -20 c1 -17 3 -17 11 -5 6 10 10 11 10 3 0 -7 4 -13 10 -13 5 0 8 6 6 13
-1 6 -1 9 1 4 3 -4 8 -5 13 -2 4 3 13 -1 19 -9 9 -10 2 -13 -33 -11 -35 1 -43
-2 -38 -14 3 -9 7 -11 9 -4 3 7 11 9 19 6 7 -3 11 -10 7 -17 -3 -6 2 -4 13 5
21 17 32 18 54 4 12 -7 11 -4 -2 17 -16 25 -16 26 0 23 9 -1 24 3 32 11 13 11
15 50 12 261 -1 136 -2 264 -2 285 1 31 -2 36 -18 31 -10 -2 -24 3 -32 12 -7
9 -9 15 -4 14 27 -5 36 1 24 16 -7 9 -8 15 -2 15 18 0 21 -29 4 -39 -9 -6 -12
-10 -7 -11 18 0 32 15 32 33 0 9 -5 17 -10 17 -5 0 -3 8 4 18 11 14 11 15 -1
5 -17 -16 -34 -17 -25 -3 8 13 -17 8 -27 -5 -5 -6 -11 -5 -17 4 -6 9 -11 10
-15 2 -4 -6 -12 -11 -17 -11 -6 0 -8 4 -5 8 3 5 -1 9 -8 9 -8 0 -12 -7 -8 -15
3 -9 1 -13 -4 -9 -15 9 -35 -8 -29 -25 6 -14 35 -21 35 -8 0 4 10 7 23 6 12
-1 23 3 24 8 1 9 23 26 33 26 3 0 6 -9 7 -20 1 -11 -1 -19 -5 -19 -19 3 -22
-3 -12 -21 9 -16 8 -18 -5 -14 -8 3 -12 10 -9 15 3 5 -5 9 -17 9 -19 0 -20 -2
-8 -17 12 -15 12 -16 -1 -8 -24 15 -42 15 -36 0 3 -8 -2 -12 -12 -10 -9 2 -20
4 -23 4 -4 1 -9 10 -12 21 -3 13 -1 18 6 13 7 -4 5 1 -3 12 -8 10 -14 20 -13
21 6 10 -10 31 -22 31 -8 0 -15 -1 -16 -1z m37 -42 c3 -18 2 -18 -10 -2 -7 10
-15 16 -18 13 -2 -3 -5 2 -5 10 0 21 30 2 33 -21z m111 13 c0 -8 -14 -13 -39
-14 -21 0 -35 3 -32 8 3 5 8 8 12 5 4 -2 16 0 27 5 28 11 32 11 32 -4z m13
-1064 c-11 -17 -11 -17 -6 0 3 10 6 24 7 30 0 9 2 9 5 0 3 -7 0 -20 -6 -30z
m-55 -3 c3 -6 -1 -7 -9 -4 -18 7 -21 14 -7 14 6 0 13 -4 16 -10z m100 -12 c5
4 5 1 1 -6 -6 -10 -11 -10 -22 -1 -8 6 -14 14 -14 16 0 3 6 0 13 -6 8 -6 18
-7 22 -3z m-38 -523 c0 -8 -4 -12 -9 -9 -5 3 -6 10 -3 15 9 13 12 11 12 -6z
m40 -440 c5 -4 2 -5 -4 -1 -8 4 -13 1 -13 -8 0 -9 -5 -16 -11 -16 -5 0 -8 4
-4 9 3 5 1 12 -5 16 -5 3 -10 -1 -10 -9 0 -8 -3 -17 -7 -19 -5 -3 -8 5 -8 17
0 18 5 22 27 21 15 -1 31 -5 35 -10z m-82 -25 c3 -5 1 -10 -4 -10 -6 0 -11 5
-11 10 0 6 2 10 4 10 3 0 8 -4 11 -10z m-65 -570 c-6 -4 -11 -11 -11 -16 1 -5
-8 -10 -19 -10 -26 -2 -26 16 0 23 11 3 20 10 20 15 0 5 5 6 11 2 8 -5 8 -9
-1 -14z m120 -4 c0 -2 -9 -6 -20 -9 -11 -3 -18 -1 -14 4 5 9 34 13 34 5z"/>
<path d="M1606 2788 c3 -4 11 -5 19 -1 21 7 19 12 -4 10 -11 0 -18 -5 -15 -9z"/>
<path d="M1859 2787 c7 -7 6 -17 0 -30 -8 -14 -8 -18 0 -12 7 4 18 1 26 -5 8
-6 19 -9 25 -5 18 11 49 14 55 4 6 -9 -13 -13 -45 -10 -11 1 -10 -3 4 -14 11
-8 15 -15 9 -15 -7 0 -15 5 -19 11 -4 8 -9 7 -15 -2 -7 -11 -9 -10 -9 4 0 9
-6 17 -13 17 -21 0 -28 -12 -16 -26 7 -8 7 -14 -1 -19 -7 -4 -10 -397 -10
-1292 1 -1196 2 -1284 17 -1271 12 9 15 9 9 1 -4 -8 -2 -13 4 -13 6 0 9 -3 6
-8 -2 -4 13 -7 33 -7 33 0 37 2 34 20 -4 16 -3 17 5 6 16 -22 41 -22 37 -1 -2
13 1 17 10 14 7 -3 16 0 21 7 5 8 3 10 -7 5 -8 -4 -7 -1 3 6 12 11 14 18 6 32
-7 13 -7 17 0 12 11 -7 25 21 16 35 -3 5 -1 9 3 9 5 0 9 8 10 18 1 9 4 35 7
57 21 146 29 308 29 525 0 255 -10 401 -29 432 -4 7 -3 8 4 4 9 -5 9 -1 3 17
-5 13 -12 39 -15 58 -3 19 -8 48 -12 64 -3 17 -5 44 -5 60 3 77 6 115 12 115
3 0 6 6 6 13 0 6 4 53 8 102 16 176 10 661 -10 810 -8 61 -10 69 -19 84 -7 11
-6 12 5 6 11 -7 12 -6 2 7 -7 8 -14 27 -15 41 -1 16 -11 30 -25 36 -14 6 -20
16 -17 25 3 8 0 17 -6 21 -8 5 -7 14 4 31 15 21 15 23 -1 17 -12 -5 -14 -3 -8
8 7 10 1 9 -18 -3 -30 -20 -47 -23 -47 -7 0 5 4 8 9 4 5 -3 12 -1 16 4 6 10
-17 8 -49 -5 -12 -5 -17 -4 -13 3 3 5 -1 10 -9 10 -10 0 -11 -4 -5 -10z m53
-38 c-9 -4 -23 -2 -30 4 -20 16 7 28 30 14 17 -11 17 -12 0 -18z m58 14 c0
-15 -2 -16 -10 -3 -8 12 -10 12 -10 1 0 -8 -3 -12 -6 -8 -8 7 4 27 17 27 5 0
9 -8 9 -17z m5 -43 c-3 -5 -12 -10 -18 -10 -7 0 -6 4 3 10 19 12 23 12 15 0z
m-71 -142 c-5 -8 -2 -9 9 -5 10 3 17 2 17 -4 0 -6 5 -7 12 -3 6 4 9 3 6 -2 -3
-5 4 -17 15 -27 18 -19 19 -18 13 1 -4 12 -2 24 5 28 7 4 9 3 5 -4 -3 -6 3
-20 15 -30 15 -15 17 -22 8 -27 -8 -5 -10 -4 -5 3 4 7 2 12 -3 12 -17 0 -13
-18 6 -28 9 -6 17 -18 18 -28 1 -11 5 -37 9 -59 25 -148 25 -554 0 -705 -3
-19 -6 -48 -6 -63 0 -20 -4 -27 -15 -23 -10 4 -12 2 -4 -11 6 -12 5 -20 -6
-29 -13 -9 -13 -13 -3 -19 9 -6 11 -4 5 5 -5 9 -4 11 4 6 6 -4 9 -12 5 -17 -3
-5 -10 -6 -16 -3 -7 5 -9 1 -5 -9 3 -9 3 -16 -1 -16 -4 1 -9 0 -12 -1 -19 -7
-39 -7 -34 1 3 5 10 7 15 4 5 -3 6 1 2 10 -4 12 -8 13 -13 4 -5 -6 -15 -9 -24
-6 -10 4 -16 1 -16 -8 0 -18 -16 -20 -26 -3 -5 7 -3 8 7 3 10 -6 10 -3 -2 11
-13 17 -15 77 -13 509 1 270 3 492 4 495 1 3 2 9 1 14 -1 5 9 1 24 -8 14 -9
25 -13 26 -9 0 5 5 -1 10 -12 9 -20 9 -20 6 0 -1 11 -15 26 -30 33 -15 7 -25
17 -22 23 4 5 8 9 11 9 3 0 2 -5 -2 -12z m23 -1083 c0 -8 -4 -12 -9 -9 -5 3
-6 10 -3 15 9 13 12 11 12 -6z m40 -149 c2 -21 2 -21 -13 -2 -8 11 -14 18 -15
15 0 -2 -2 -14 -5 -26 -2 -13 1 -23 7 -23 5 0 7 5 4 10 -9 14 8 12 24 -2 11
-10 13 -10 7 0 -4 6 -3 12 3 12 6 0 9 6 7 13 -1 6 -1 9 1 4 3 -4 10 -4 15 -1
6 4 8 2 4 -4 -3 -6 1 -18 11 -27 9 -9 17 -33 17 -53 0 -21 4 -39 7 -42 30 -22
32 -653 3 -785 -4 -16 -7 -38 -8 -47 0 -18 -8 -22 -36 -19 -13 2 -13 1 0 -8 8
-5 17 -8 21 -5 4 2 11 -1 15 -7 4 -7 3 -10 -2 -7 -5 4 -22 1 -39 -6 -19 -8
-25 -15 -17 -20 7 -4 12 -3 12 2 0 5 7 9 16 9 15 0 15 -1 1 -12 -10 -7 -13
-15 -7 -21 6 -6 1 -15 -13 -23 -18 -11 -20 -11 -9 0 21 23 13 33 -10 13 -23
-19 -23 -19 -6 1 16 20 16 21 -3 33 -14 9 -24 10 -33 3 -9 -7 -16 -7 -24 1 -8
8 -12 9 -12 1 0 -15 28 -25 35 -13 4 6 11 10 16 10 6 0 7 -5 3 -12 -4 -7 -3
-8 4 -4 18 11 14 0 -5 -15 -11 -10 -14 -10 -9 -1 9 15 1 15 -26 1 -12 -7 -18
-7 -14 -1 3 6 1 12 -6 14 -10 4 -13 114 -13 479 -1 261 2 484 7 497 5 15 4 22
-5 23 -9 0 -9 2 0 5 7 3 9 12 6 21 -5 13 -3 13 15 4 14 -7 23 -8 27 -1 4 6 3
10 -2 9 -19 -3 -25 2 -15 14 18 21 58 16 59 -7z m-52 -1230 c7 3 15 1 19 -4 3
-5 -5 -8 -16 -7 -12 1 -23 7 -24 14 -1 6 0 7 2 2 3 -6 11 -8 19 -5z"/>
<path d="M1993 1310 c1 -10 4 -17 8 -14 4 2 9 -4 11 -13 3 -15 5 -15 9 -3 3 8
-2 23 -12 32 -17 16 -18 16 -16 -2z"/>
<path d="M1910 339 c0 -5 5 -7 10 -4 6 3 10 8 10 11 0 2 -4 4 -10 4 -5 0 -10
-5 -10 -11z"/>
<path d="M2218 2788 c-14 -8 0 -12 32 -9 10 1 11 -1 4 -6 -6 -4 -10 -16 -9
-25 2 -9 -3 -22 -11 -29 -8 -6 -12 -15 -9 -19 3 -5 0 -12 -6 -16 -7 -4 -9 -3
-5 4 3 6 3 13 -2 15 -4 3 -8 -11 -9 -31 -2 -54 -6 -82 -13 -82 -4 0 -6 -16 -5
-35 1 -19 -1 -35 -4 -35 -4 0 -7 -8 -8 -17 0 -10 -4 -43 -7 -73 -13 -102 -15
-125 -21 -210 -3 -47 -8 -105 -10 -130 -12 -129 -18 -371 -19 -680 0 -389 4
-497 39 -920 2 -19 4 -35 5 -35 1 0 3 -18 6 -40 2 -22 7 -53 10 -70 3 -16 6
-40 7 -52 0 -13 6 -23 12 -23 5 0 3 -5 -5 -10 -9 -6 -11 -10 -3 -10 7 0 10 -7
7 -15 -4 -8 -1 -15 6 -15 9 0 10 -3 1 -14 -9 -10 -8 -16 4 -26 8 -7 12 -16 10
-21 -9 -14 6 -59 18 -52 7 4 8 0 3 -12 -5 -13 -3 -15 6 -8 7 5 24 8 37 7 14
-1 31 5 39 12 8 8 9 14 3 14 -13 0 -10 22 3 32 6 4 4 13 -3 22 -11 13 -11 17
2 22 9 3 16 13 15 22 0 9 3 28 7 42 3 14 8 39 10 55 1 17 4 30 5 30 1 0 3 11
5 25 1 14 6 48 10 75 4 28 9 73 10 100 2 28 6 82 10 120 37 438 37 1090 0
1520 -3 39 -8 97 -10 130 -2 33 -4 60 -5 60 -2 0 -4 16 -6 35 -2 19 -5 46 -7
60 -1 14 -5 30 -8 35 -3 6 -6 26 -8 45 -2 19 -7 42 -12 51 -5 10 -4 20 3 27 8
8 8 12 1 12 -5 0 -10 10 -9 23 1 12 -7 29 -17 39 -13 12 -15 17 -5 21 9 4 7 6
-4 6 -22 1 -32 17 -17 27 8 4 9 3 5 -4 -4 -7 -3 -12 2 -12 5 0 12 11 14 25 5
22 3 23 -10 13 -13 -11 -15 -10 -10 3 5 12 -1 16 -28 16 -18 0 -39 -4 -46 -9z
m56 -203 c-4 -8 -10 -12 -15 -9 -15 9 -10 -3 8 -17 11 -10 14 -10 9 -1 -4 7
-1 12 9 12 12 0 15 -5 9 -22 -6 -20 -5 -21 9 -10 13 11 15 10 12 -5 -1 -10 3
-24 9 -32 9 -12 8 -13 -4 -6 -12 7 -13 6 -4 -6 6 -8 11 -25 13 -39 3 -36 8
-65 11 -65 1 0 4 -13 6 -30 2 -16 5 -48 8 -70 2 -22 7 -60 10 -85 4 -25 9 -83
11 -130 3 -47 8 -132 11 -190 9 -142 9 -775 1 -930 -11 -187 -16 -261 -22
-305 -3 -22 -7 -60 -9 -85 -2 -25 -5 -46 -6 -47 -3 -4 -5 -11 -14 -68 -4 -27
-13 -56 -19 -64 -8 -9 -8 -12 -1 -8 6 3 11 -1 11 -9 0 -8 -6 -13 -14 -10 -11
4 -11 1 -3 -14 8 -14 8 -20 0 -20 -6 0 -9 -4 -6 -9 8 -12 -4 -41 -16 -41 -5 0
-7 4 -4 8 3 5 -1 9 -9 9 -13 0 -13 -3 0 -17 14 -16 14 -19 0 -34 -22 -21 -24
-20 -19 9 3 16 0 23 -8 21 -7 -1 -10 -1 -5 1 4 3 7 9 7 14 0 6 -4 7 -10 4 -9
-6 -14 8 -11 29 1 4 -2 13 -7 20 -5 6 -9 26 -11 45 -1 19 -6 40 -12 47 -7 8
-6 14 2 19 8 5 8 10 0 14 -5 4 -12 30 -13 59 -2 29 -5 52 -8 52 -3 0 -6 17 -6
38 -1 20 -5 75 -9 122 -4 47 -9 110 -11 140 -5 67 -14 405 -15 550 -1 162 14
605 21 605 0 0 3 41 5 90 5 89 8 121 20 200 3 22 7 51 8 65 1 14 5 30 8 35 4
6 5 18 4 28 -2 9 0 17 5 17 4 0 6 11 5 25 -2 14 1 25 5 25 5 0 7 9 5 21 -3 14
0 19 9 16 10 -4 13 3 11 23 -2 22 1 27 13 22 11 -4 13 -2 7 8 -5 8 -4 11 3 6
6 -4 9 -13 6 -21z m23 3 c-3 -8 -6 -5 -6 6 -1 11 2 17 5 13 3 -3 4 -12 1 -19z"/>
<path d="M2665 2791 c-3 -5 -2 -12 3 -15 5 -3 9 1 9 9 0 17 -3 19 -12 6z"/>
<path d="M1126 2775 c-17 -13 -17 -17 -5 -32 12 -15 12 -16 -3 -10 -12 4 -15
2 -11 -8 3 -8 10 -12 16 -8 6 4 7 1 2 -7 -6 -10 -11 -10 -20 3 -7 9 -16 13
-20 9 -4 -4 -2 3 4 16 7 12 9 27 6 32 -11 18 -22 2 -23 -35 -1 -21 3 -33 8
-30 6 3 10 1 10 -4 0 -6 -6 -11 -13 -11 -10 0 -13 -240 -13 -1280 0 -939 3
-1279 12 -1276 6 2 11 -2 11 -10 0 -7 -4 -11 -9 -8 -4 3 -8 0 -8 -5 0 -6 3
-11 8 -12 4 0 14 -2 23 -4 9 -1 16 3 16 11 0 7 -4 11 -9 8 -4 -3 -8 0 -8 6 0
7 6 10 13 7 8 -3 19 -2 26 2 17 11 16 2517 -1 2539 -9 11 -9 14 -1 9 6 -4 14
-3 18 3 3 5 -1 10 -10 10 -12 0 -14 4 -6 19 8 14 7 22 -4 31 -8 7 -12 17 -9
22 4 6 10 5 15 -3 6 -10 8 -7 6 9 0 12 -1 22 -2 22 0 0 -9 -7 -19 -15z"/>
<path d="M1995 2759 c-4 -6 -5 -12 -2 -15 2 -3 7 2 10 11 7 17 1 20 -8 4z"/>
<path d="M2436 2658 c2 -62 5 -131 8 -153 2 -22 7 -70 10 -107 3 -38 8 -94 12
-125 3 -32 8 -80 10 -108 2 -27 6 -70 8 -95 3 -25 8 -79 11 -120 3 -41 8 -91
11 -110 2 -19 6 -60 8 -90 2 -30 8 -84 12 -120 10 -79 10 -260 1 -355 -4 -38
-9 -90 -12 -115 -4 -42 -7 -77 -20 -212 -13 -136 -16 -176 -20 -219 -2 -25 -6
-74 -10 -110 -4 -35 -8 -89 -10 -119 -3 -30 -7 -75 -9 -99 -9 -73 -19 -185
-19 -211 0 -74 15 -128 19 -67 1 12 4 45 8 72 3 28 8 79 11 115 3 36 8 86 10
112 3 27 8 74 10 106 2 32 7 81 10 108 2 27 7 76 10 109 9 104 14 145 20 155
3 6 1 10 -5 10 -6 0 -9 4 -6 9 3 5 7 28 10 52 2 24 7 78 12 119 8 88 12 128
13 154 2 33 13 9 16 -32 3 -37 11 -126 21 -217 2 -22 7 -71 10 -110 3 -38 7
-86 9 -105 1 -19 6 -66 9 -105 3 -38 8 -88 10 -110 4 -35 9 -90 21 -235 2 -19
6 -66 10 -105 4 -38 6 -80 6 -92 0 -13 4 -23 10 -23 5 0 7 5 4 10 -3 6 -2 10
4 10 9 0 7 105 -3 190 -2 19 -7 71 -11 115 -3 44 -8 94 -11 110 -2 17 -6 59
-9 95 -2 36 -7 85 -10 110 -2 25 -7 74 -10 110 -8 103 -14 161 -20 215 -6 54
-12 117 -21 210 -7 77 -11 267 -5 279 2 5 5 28 7 50 1 23 5 64 8 91 6 47 11
100 21 220 2 28 7 77 10 110 14 146 16 173 20 225 2 30 6 73 9 95 16 143 19
187 20 245 1 36 5 68 10 71 13 10 -2 29 -18 23 -9 -3 -13 -19 -12 -42 2 -20 0
-41 -3 -47 -3 -5 -6 -30 -7 -55 -1 -25 -4 -72 -8 -105 -9 -84 -14 -140 -21
-215 -3 -36 -8 -87 -11 -115 -2 -27 -7 -81 -10 -120 -6 -84 -11 -141 -20 -215
-3 -30 -6 -72 -7 -93 0 -44 -17 -62 -18 -20 -1 29 -2 36 -13 145 -4 37 -9 89
-11 115 -2 26 -6 75 -9 108 -4 33 -8 85 -11 115 -2 30 -8 84 -11 120 -4 36 -8
81 -9 100 -2 19 -6 64 -9 100 -4 36 -9 90 -11 120 -3 30 -8 71 -11 90 -3 19
-6 47 -7 63 0 15 -4 27 -7 27 -4 0 -5 -51 -4 -112z"/>
<path d="M2227 2753 c-4 -3 -7 -13 -7 -21 0 -18 13 -7 16 13 2 17 1 18 -9 8z"/>
<path d="M2660 2725 c0 -8 5 -15 11 -15 5 0 8 4 5 9 -4 5 0 12 6 14 8 3 6 6
-4 6 -10 1 -18 -6 -18 -14z"/>
<path d="M1620 2719 c0 -15 18 -19 23 -6 3 8 -1 14 -9 14 -8 0 -14 -4 -14 -8z"/>
<path d="M2003 2715 c-10 -10 -9 -14 2 -19 17 -6 26 5 17 21 -5 8 -11 7 -19
-2z"/>
<path d="M1775 2121 c-3 -6 -12 -8 -18 -4 -7 3 -4 -3 6 -14 9 -11 14 -23 10
-26 -3 -4 -1 -7 5 -7 15 0 16 17 1 26 -8 4 -7 9 2 15 7 4 11 11 7 14 -3 4 -9
1 -13 -4z"/>
<path d="M613 2085 c0 -8 4 -12 9 -9 5 3 6 10 3 15 -9 13 -12 11 -12 -6z"/>
<path d="M1750 1766 c0 -2 7 -7 16 -10 8 -3 12 -2 9 4 -6 10 -25 14 -25 6z"/>
<path d="M1730 1130 c-8 -5 -12 -12 -9 -15 4 -3 12 1 19 10 14 17 11 19 -10 5z"/>
<path d="M1676 754 c-5 -13 -9 -14 -20 -5 -11 10 -14 9 -12 -3 4 -26 12 -27
31 -6 10 11 16 23 13 25 -3 3 -8 -2 -12 -11z"/>
<path d="M1775 760 c-3 -5 -1 -10 4 -10 6 0 11 5 11 10 0 6 -2 10 -4 10 -3 0
-8 -4 -11 -10z"/>
<path d="M2020 120 c-9 -6 -10 -10 -3 -10 6 0 15 5 18 10 8 12 4 12 -15 0z"/>
<path d="M1135 109 c-4 -6 -5 -12 -2 -15 2 -3 7 2 10 11 7 17 1 20 -8 4z"/>
<path d="M1376 95 c-11 -8 -15 -15 -9 -15 6 0 16 7 23 15 16 19 11 19 -14 0z"/>
<path d="M1674 96 c1 -8 5 -18 8 -22 4 -3 5 1 4 10 -1 8 -5 18 -8 22 -4 3 -5
-1 -4 -10z"/>
<path d="M1970 79 c0 -5 5 -7 10 -4 6 3 10 8 10 11 0 2 -4 4 -10 4 -5 0 -10
-5 -10 -11z"/>
<path d="M2242 70 c-7 -12 -8 -20 -2 -20 5 0 10 5 10 11 0 6 8 3 18 -8 9 -10
14 -14 10 -9 -15 19 -8 28 10 15 15 -12 16 -12 5 2 -7 9 -9 20 -5 25 4 4 0 3
-10 -4 -10 -9 -17 -9 -20 -2 -1 5 -9 1 -16 -10z"/>
<path d="M630 50 c-6 -11 -8 -20 -6 -20 3 0 10 9 16 20 6 11 8 20 6 20 -3 0
-10 -9 -16 -20z"/>
<path d="M2256 21 c-4 -5 -2 -12 3 -15 5 -4 12 -2 15 3 4 5 2 12 -3 15 -5 4
-12 2 -15 -3z"/>
</g>
</svg>
